PathFileType	4	(X/Y/Z)	Patient4_TMGait_0pt6_02_left_25.trc.trc
DataRate	CameraRate	NumFrames	NumMarkers	Units	OrigDataRate	OrigDataStartFrame	OrigNumFrames
82.352941176471	82.352941176471	4	33	mm	82.352941176471	53	       141
Frame#	Time	Sacral			L.Shoulder			Chest			R.Shoulder			Neck			R.ASIS			L.ASIS			R.Thigh.Superior			R.Thigh.Lateral			R.Thigh.Inferior			R.Patella			L.Thigh.Superior			L.Thigh.Lateral			L.Thigh.Inferior			L.Patella			L.Shank.Superior			L.Shank.Lateral			L.Shank.Inferior			R.Shank.Superior			R.Shank.Lateral			R.Shank.Inferior			R.Heel			R.Midfoot.Superior			R.Midfoot.Lateral			R.Toe			L.Heel			L.Midfoot.Lateral			L.Midfoot.Superior			L.Toe			L.Elbow			L.Wrist			R.Elbow			R.Wrist			
		X1	Y1	Z1	X2	Y2	Z2	X3	Y3	Z3	X4	Y4	Z4	X5	Y5	Z5	X6	Y6	Z6	X7	Y7	Z7	X8	Y8	Z8	X9	Y9	Z9	X10	Y10	Z10	X11	Y11	Z11	X12	Y12	Z12	X13	Y13	Z13	X14	Y14	Z14	X15	Y15	Z15	X16	Y16	Z16	X17	Y17	Z17	X18	Y18	Z18	X19	Y19	Z19	X20	Y20	Z20	X21	Y21	Z21	X22	Y22	Z22	X23	Y23	Z23	X24	Y24	Z24	X25	Y25	Z25	X26	Y26	Z26	X27	Y27	Z27	X28	Y28	Z28	X29	Y29	Z29	X30	Y30	Z30	X31	Y31	Z31	X32	Y32	Z32	X33	Y33	Z33	

53	31.221428571429	851.184683914173	1015.895569461282	414.268593309066	1052.943392630036	1426.230930651690	210.806572111468	1149.945441271233	1359.496824783209	375.293909551452	1069.855133250729	1450.081170063159	541.839884812464	1056.293360018677	1495.551994334983	357.478245379577	1077.289303364823	951.402894492231	529.444615627471	1063.519888949604	961.383272204873	255.795595665640	1172.484941046438	802.194689921944	501.430102746619	1151.953764968958	678.413541098096	578.692102109692	1243.463222203493	651.500039552070	496.684753540416	1282.895944062725	547.720283120488	518.654493129774	1103.106580109177	751.304783488474	285.227859672194	1009.789634082369	639.893312281294	228.519197748375	1092.701502449274	559.516475294593	290.615288760278	1089.106230682005	490.784140814040	300.610633437264	1064.171093086080	420.325021978862	293.809678764988	973.221112931844	304.547147587582	247.317573790001	1029.671945710372	195.621940394741	319.251934336593	1231.062595240736	458.591448421485	525.564896580151	1131.361686782438	380.621987034757	587.076969121138	1152.690060810494	274.117673978705	535.820545569944	984.989733708858	141.070422591915	508.516761304745	1162.408581043832	155.991875563422	548.199248419135	1062.264914241222	115.634135617564	585.183722319158	1265.732107356888	81.468082384297	583.242804367174	905.661158679793	38.388935970045	368.898773494451	977.564452242122	34.504940729314	285.983444944463	1060.285855554737	97.345083636897	310.101560155425	1188.905938658102	47.923566186211	280.772908999740	1093.374513448000	1079.201694018687	88.487759218524	1255.268117732115	873.292020942192	95.195896101719	957.560090170111	1131.096156714272	680.715295251921	1019.334084038683	877.823357331888	700.578374443097	
54	31.233571428571	850.439242199415	1015.587866839138	413.839870537143	1053.326363609258	1426.323673913157	211.180624227471	1149.628101802800	1359.197056471901	375.889077777996	1068.967181296147	1449.394503248269	542.311063854551	1056.050808950613	1495.284388758077	358.033048833025	1076.329586758146	951.408621964488	529.695210689438	1063.358806854533	961.013718470582	255.945366233261	1171.956923914920	803.022541442555	500.933874674243	1152.495459673067	679.305338265200	578.482743868549	1242.980388962186	652.524928390879	495.405317834472	1284.318172150337	550.959987452427	517.490016215762	1102.026949873870	750.548208427004	286.082980597909	1008.466173545935	639.440152328297	228.837796550438	1090.520432043134	558.631106945170	291.369572440771	1086.402472232240	489.798955458077	301.560397689402	1060.945981544677	419.398835969935	294.658423094010	969.294842651290	304.450390941984	247.439301039235	1023.985097938413	195.017550995834	319.817757168778	1236.595493936659	460.735755922419	525.782857979196	1142.343929226165	378.025291265561	589.477917109276	1168.615528465368	272.338286522484	538.414371504932	1007.903888123433	130.778954425732	514.408049657332	1185.215339964690	154.417082133336	551.399639365809	1087.658025220747	109.198903416359	589.850412146319	1292.564652983286	84.621163056210	584.636464857169	898.415486378483	38.424733674546	368.897275209429	970.305582010100	34.581032181481	286.045823475085	1053.202916709483	97.114270426971	310.386027522244	1181.755625279302	47.358531619762	280.794259845365	1096.510587171228	1080.527568782863	87.213249182187	1266.978404687262	881.532608080532	95.290939546510	953.862178590455	1131.174218468898	680.344413299428	996.053175534426	874.181049800196	708.041763100696	
55	31.245714285714	849.812321060244	1015.218837376070	413.481597176367	1053.717875393274	1426.291461144782	211.692164658574	1149.376763882788	1358.822015122536	376.615155548345	1068.186354185240	1448.684642566395	542.907821621676	1055.866326857544	1494.948626530695	358.693942525925	1075.426545979200	951.205200093184	530.084177789698	1063.357166512126	960.678872050112	256.224259721716	1171.215359681813	803.316646423550	500.747499047030	1152.362959851382	679.687580337383	578.550419355965	1241.991220937940	652.907937445113	494.642602249349	1284.987483400724	553.656923716309	516.760759192494	1101.079697160493	749.745059187811	286.954129663605	1007.122811591876	638.983462434013	229.187607880857	1088.203670220368	557.697071901805	292.186823895968	1083.539055949098	488.808649704284	302.582105067152	1057.587265371595	418.461822044480	295.545109027382	965.296859348879	304.322839623328	247.588630232632	1018.211020538343	194.406775204625	320.416901543270	1241.470922592748	462.600682174720	526.175417704660	1152.960228936931	375.362534017282	591.855093139646	1184.201348231313	270.868972147609	540.756293133944	1031.032305278635	121.318126850428	519.671572358703	1207.832386389660	153.408102992577	554.179961317735	1113.026635381405	103.422439151954	593.789727798586	1318.820817262433	88.269245409994	585.260194381720	891.155687768657	38.453260513746	368.890090186574	963.033911977467	34.645604706800	286.101572332784	1046.094897965716	96.897576783488	310.665779606801	1174.588409238460	46.821699788378	280.820525873632	1099.129068310515	1081.658762842361	86.075510641914	1277.966299082670	890.076351152966	95.719265997257	950.196787261142	1131.460565719549	680.237593406793	974.063527163599	872.536140116827	714.964172800206	
56	31.257857142857	849.332509361667	1014.802624926519	413.193412094588	1054.119236649000	1426.152831810401	212.341046346669	1149.200974725704	1358.396806925520	377.470171238494	1067.526816148291	1447.985336890520	543.629263782262	1055.752848129604	1494.565621189124	359.462150680367	1074.610231737526	950.824775497778	530.611002141153	1063.524642105874	960.401772046930	256.627839480372	1170.276176367767	803.105639702977	500.908654968870	1151.586008820253	679.576400424902	578.942265576972	1240.587249691415	652.701149774908	494.481031476036	1284.962988818580	555.816163465765	516.542364996190	1100.239933158785	748.890121897621	287.835609020292	1005.682026703389	638.550716473145	229.565824265899	1085.647928449657	556.724917450870	293.059944320576	1080.403562649520	487.832302449850	303.655116852908	1053.994234262250	417.542662463633	296.446987565060	961.137153497092	304.176542627591	247.762748940753	1012.307753022743	193.810937412909	321.031889874276	1245.692562914986	464.199713322788	526.785343334887	1163.102553623671	372.676162982405	594.181698248533	1199.296978675380	269.756268648826	542.831176889674	1054.114671232391	112.821060740017	524.198930737761	1230.027725221655	152.977487180799	556.502486920617	1138.096766970778	98.344057085844	596.922265359127	1344.244154083052	92.369346100362	585.101780204193	883.876681563258	38.475752619925	368.878484226205	955.746936952455	34.697226261319	286.148889944755	1038.954645196643	96.701938709773	310.930349907577	1167.396858955875	46.335151721469	280.851108852472	1101.267183539257	1082.599141557763	85.101974284311	1288.176880779559	898.892949106980	96.480694548303	946.402551376253	1132.074378920270	680.429997329208	953.690239638494	872.682396533895	721.267754393550	
